# xmcd CD database file
#
# Track frame offsets:
#	150
#	18265
#	37682
#	55320
#	75370
#	89810
#	107740
#	129617
#	152915
#	169752
#	193137
#
# Disc length: 2866 seconds
#
# Revision: 0
# Processed by: cddbd v1.5.1PL0 Copyright (c) Steve Scherf et al.
# Submitted via: CDex 1.51
#
DISCID=870b300b
DTITLE=Gary Burnotte - Yesterdays Dream
DYEAR=1992
DGENRE=Jazz
TTITLE0=a la Horace
TTITLE1=Sometime
TTITLE2=In Rememberance
TTITLE3=If I Only Had a Brain
TTITLE4=Spring Can Really Hang You Up The Most
TTITLE5=Recollections
TTITLE6=Adeus Brasil
TTITLE7=Slightly Blured
TTITLE8=A Ditty for the Kitty
TTITLE9=Caterpillar Crossing
TTITLE10=Pensive
EXTD=YEAR: 1992
EXTT0=
EXTT1=
EXTT2=
EXTT3=
EXTT4=
EXTT5=
EXTT6=
EXTT7=
EXTT8=
EXTT9=
EXTT10=
PLAYORDER=
